<svg width="25" height="25" viewBox="0 0 25 25" fill="none" xmlns="http://www.w3.org/2000/svg">
<path d="M12.5 0.390625C12.7188 0.390484 12.9332 0.451584 13.1191 0.567011C13.3049 0.682438 13.4547 0.847581 13.5516 1.04375L16.4922 7.00469L23.0703 7.96094C23.2867 7.99236 23.4899 8.08367 23.6571 8.22456C23.8242 8.36544 23.9487 8.55028 24.0163 8.75818C24.0839 8.96608 24.092 9.18875 24.0397 9.40102C23.9874 9.61329 23.8768 9.80669 23.7203 9.95938L18.9609 14.6L20.0844 21.15C20.1208 21.3654 20.0964 21.5866 20.0139 21.7889C19.9314 21.9911 19.7941 22.1664 19.6174 22.2948C19.4407 22.4233 19.2317 22.4998 19.0139 22.5159C18.796 22.532 18.578 22.487 18.3844 22.3859L12.5 19.2922L6.61562 22.3859C6.42217 22.4875 6.20416 22.533 5.98623 22.5172C5.7683 22.5014 5.55912 22.425 5.38231 22.2966C5.2055 22.1683 5.06811 21.993 4.98564 21.7907C4.90318 21.5883 4.87892 21.367 4.91562 21.1516L6.04062 14.5984L1.27812 9.95938C1.1212 9.80676 1.01015 9.61323 0.957578 9.40073C0.905004 9.18824 0.913 8.96526 0.980661 8.75708C1.04832 8.54889 1.17294 8.36382 1.3404 8.22283C1.50785 8.08184 1.71145 7.99058 1.92812 7.95937L8.50625 7.00469L11.4484 1.04375C11.5453 0.847581 11.6951 0.682438 11.8809 0.567011C12.0668 0.451584 12.2812 0.390484 12.5 0.390625Z" fill="#E2B341"/>
</svg>
